<mxfile host="app.diagrams.net" modified="2022-09-03T10:06:24.140Z" agent="5.0 (Windows NT 10.0; Win64; x64) AppleWebKit/537.36 (KHTML, like Gecko) Chrome/104.0.0.0 Safari/537.36" etag="2OcA4P2SEAmWUXCybx1u" version="20.2.7" type="github">
  <diagram id="cgQQjIYMZoQyVY4uqlx7" name="PÃ¡gina-1">
    <mxGraphModel dx="1422" dy="1874" grid="1" gridSize="10" guides="1" tooltips="1" connect="1" arrows="1" fold="1" page="1" pageScale="1" pageWidth="827" pageHeight="1169" math="0" shadow="0">
      <root>
        <mxCell id="0" />
        <mxCell id="1" parent="0" />
        <mxCell id="h8Qz5vN-bMKAZe17juND-47" value="" style="rounded=1;whiteSpace=wrap;html=1;" vertex="1" parent="1">
          <mxGeometry x="10" y="100" width="820" height="320" as="geometry" />
        </mxCell>
        <mxCell id="h8Qz5vN-bMKAZe17juND-1" value="Nombres" style="fillColor=none;strokeColor=none;align=left;fontSize=14;" vertex="1" parent="1">
          <mxGeometry x="27" y="180" width="100" height="30" as="geometry" />
        </mxCell>
        <mxCell id="h8Qz5vN-bMKAZe17juND-2" value="Mark" style="html=1;shadow=0;dashed=0;shape=mxgraph.bootstrap.rrect;rSize=5;fillColor=#ffffff;strokeColor=#CED4DA;align=left;spacing=15;fontSize=14;fontColor=#6C767D;" vertex="1" parent="1">
          <mxGeometry x="27" y="210" width="260" height="40" as="geometry" />
        </mxCell>
        <mxCell id="h8Qz5vN-bMKAZe17juND-3" value="Apeliidos" style="fillColor=none;strokeColor=none;align=left;fontSize=14;" vertex="1" parent="1">
          <mxGeometry x="297" y="180" width="100" height="30" as="geometry" />
        </mxCell>
        <mxCell id="h8Qz5vN-bMKAZe17juND-4" value="Otto" style="html=1;shadow=0;dashed=0;shape=mxgraph.bootstrap.rrect;rSize=5;fillColor=#ffffff;strokeColor=#CED4DA;align=left;spacing=15;fontSize=14;fontColor=#6C767D;" vertex="1" parent="1">
          <mxGeometry x="297" y="210" width="260" height="40" as="geometry" />
        </mxCell>
        <mxCell id="h8Qz5vN-bMKAZe17juND-5" value="Usuario" style="fillColor=none;strokeColor=none;align=left;fontSize=14;" vertex="1" parent="1">
          <mxGeometry x="567" y="180" width="100" height="30" as="geometry" />
        </mxCell>
        <mxCell id="h8Qz5vN-bMKAZe17juND-6" value="" style="html=1;shadow=0;dashed=0;shape=mxgraph.bootstrap.rrect;rSize=5;fillColor=#ffffff;strokeColor=#CED4DA;align=left;spacingLeft=50;fontSize=14;fontColor=#6C767D;" vertex="1" parent="1">
          <mxGeometry x="567" y="210" width="260" height="40" as="geometry" />
        </mxCell>
        <mxCell id="h8Qz5vN-bMKAZe17juND-7" value="@" style="html=1;shadow=0;dashed=0;shape=mxgraph.bootstrap.leftButton;rSize=5;strokeColor=#CED4DA;fillColor=#f0f0f0;whiteSpace=wrap;resizeHeight=1;fontColor=#495057;" vertex="1" parent="h8Qz5vN-bMKAZe17juND-6">
          <mxGeometry width="40" height="40" relative="1" as="geometry" />
        </mxCell>
        <mxCell id="h8Qz5vN-bMKAZe17juND-8" value="Email" style="fillColor=none;strokeColor=none;align=left;fontSize=14;" vertex="1" parent="1">
          <mxGeometry x="27" y="260" width="100" height="30" as="geometry" />
        </mxCell>
        <mxCell id="h8Qz5vN-bMKAZe17juND-9" value="example@example.com&lt;span style=&quot;white-space: pre;&quot;&gt;	&lt;/span&gt;" style="html=1;shadow=0;dashed=0;shape=mxgraph.bootstrap.rrect;rSize=5;fillColor=#ffffff;strokeColor=#CED4DA;align=left;spacing=15;fontSize=14;fontColor=#6C767D;" vertex="1" parent="1">
          <mxGeometry x="27" y="290" width="390" height="40" as="geometry" />
        </mxCell>
        <mxCell id="h8Qz5vN-bMKAZe17juND-17" value="Enviar" style="html=1;shadow=0;dashed=0;shape=mxgraph.bootstrap.rrect;rSize=5;fillColor=#0085FC;strokeColor=none;align=center;spacing=15;fontSize=14;fontColor=#ffffff;" vertex="1" parent="1">
          <mxGeometry x="30" y="350" width="120" height="40" as="geometry" />
        </mxCell>
        <mxCell id="h8Qz5vN-bMKAZe17juND-18" value="Actualizar datos" style="rounded=1;whiteSpace=wrap;html=1;arcSize=50;strokeColor=none;strokeWidth=1;fillColor=#0085FC;fontColor=#FFFFFF;whiteSpace=wrap;align=left;verticalAlign=middle;spacingLeft=0;fontStyle=1;fontSize=14;spacing=10;" vertex="1" parent="1">
          <mxGeometry x="50" y="120" width="140" height="40" as="geometry" />
        </mxCell>
        <mxCell id="h8Qz5vN-bMKAZe17juND-21" value="Password" style="fillColor=none;strokeColor=none;align=left;fontSize=14;fontColor=#212529;" vertex="1" parent="1">
          <mxGeometry x="427" y="260" width="400" height="30" as="geometry" />
        </mxCell>
        <mxCell id="h8Qz5vN-bMKAZe17juND-22" value="" style="html=1;shadow=0;dashed=0;shape=mxgraph.bootstrap.rrect;rSize=5;fillColor=none;strokeColor=#999999;align=left;spacing=15;fontSize=14;fontColor=#6C767D;" vertex="1" parent="1">
          <mxGeometry x="432" y="290" width="358" height="30" as="geometry" />
        </mxCell>
        <mxCell id="h8Qz5vN-bMKAZe17juND-37" value="E - Porra" style="html=1;shadow=0;dashed=0;shape=mxgraph.bootstrap.rrect;rSize=5;strokeColor=none;strokeWidth=1;fillColor=#006AC9;fontColor=#ffffff;whiteSpace=wrap;align=left;verticalAlign=middle;fontStyle=0;fontSize=14;spacingLeft=10;" vertex="1" parent="1">
          <mxGeometry x="30" y="-70" width="80" height="40" as="geometry" />
        </mxCell>
        <mxCell id="h8Qz5vN-bMKAZe17juND-38" value="" style="shape=triangle;direction=south;fillColor=#ffffff;strokeColor=none;perimeter=none;" vertex="1" parent="h8Qz5vN-bMKAZe17juND-37">
          <mxGeometry x="1" y="0.5" width="10" height="5" relative="1" as="geometry">
            <mxPoint x="80" y="-2" as="offset" />
          </mxGeometry>
        </mxCell>
        <mxCell id="h8Qz5vN-bMKAZe17juND-39" value="" style="html=1;shadow=0;dashed=0;shape=mxgraph.bootstrap.rrect;rSize=5;fillColor=#ffffff;strokeColor=#999999;" vertex="1" parent="1">
          <mxGeometry x="30" y="-27" width="170" height="77" as="geometry" />
        </mxCell>
        <mxCell id="h8Qz5vN-bMKAZe17juND-40" value="Actualizar datos" style="fillColor=none;strokeColor=none;align=left;spacing=20;fontSize=14;" vertex="1" parent="h8Qz5vN-bMKAZe17juND-39">
          <mxGeometry width="170" height="30" relative="1" as="geometry">
            <mxPoint y="10" as="offset" />
          </mxGeometry>
        </mxCell>
        <mxCell id="h8Qz5vN-bMKAZe17juND-41" value="Ver perfil" style="fillColor=none;strokeColor=none;align=left;spacing=20;fontSize=14;" vertex="1" parent="h8Qz5vN-bMKAZe17juND-39">
          <mxGeometry width="170" height="30" relative="1" as="geometry">
            <mxPoint y="40" as="offset" />
          </mxGeometry>
        </mxCell>
        <mxCell id="h8Qz5vN-bMKAZe17juND-48" style="edgeStyle=orthogonalEdgeStyle;rounded=0;orthogonalLoop=1;jettySize=auto;html=1;exitX=1;exitY=0.5;exitDx=0;exitDy=0;entryX=0.349;entryY=-0.012;entryDx=0;entryDy=0;entryPerimeter=0;" edge="1" parent="h8Qz5vN-bMKAZe17juND-39" source="h8Qz5vN-bMKAZe17juND-40" target="h8Qz5vN-bMKAZe17juND-47">
          <mxGeometry relative="1" as="geometry" />
        </mxCell>
      </root>
    </mxGraphModel>
  </diagram>
</mxfile>
